<svg xmlns="http://www.w3.org/2000/svg" viewBox="0 0 64 64">
  <!-- Clock circle -->
  <circle cx="28" cy="28" r="26" fill="#FDE68A" stroke="#F59E0B" stroke-width="2"/>
  <circle cx="28" cy="28" r="22" fill="#F3F4F6" stroke="#374151" stroke-width="2"/>
  <!-- Clock ticks -->
  <line x1="28" y1="8" x2="28" y2="12" stroke="#374151" stroke-width="2" stroke-linecap="round"/>
  <line x1="28" y1="44" x2="28" y2="48" stroke="#374151" stroke-width="2" stroke-linecap="round"/>
  <line x1="8" y1="28" x2="12" y2="28" stroke="#374151" stroke-width="2" stroke-linecap="round"/>
  <line x1="44" y1="28" x2="48" y2="28" stroke="#374151" stroke-width="2" stroke-linecap="round"/>
  <!-- Small ticks -->
  <line x1="18" y1="10.5" x2="19.5" y2="13" stroke="#374151" stroke-width="1.5" stroke-linecap="round"/>
  <line x1="10.5" y1="18" x2="13" y2="19.5" stroke="#374151" stroke-width="1.5" stroke-linecap="round"/>
  <line x1="38" y1="10.5" x2="36.5" y2="13" stroke="#374151" stroke-width="1.5" stroke-linecap="round"/>
  <line x1="45.5" y1="18" x2="43" y2="19.5" stroke="#374151" stroke-width="1.5" stroke-linecap="round"/>
  <line x1="18" y1="45.5" x2="19.5" y2="43" stroke="#374151" stroke-width="1.5" stroke-linecap="round"/>
  <line x1="10.5" y1="38" x2="13" y2="36.5" stroke="#374151" stroke-width="1.5" stroke-linecap="round"/>
  <line x1="38" y1="45.5" x2="36.5" y2="43" stroke="#374151" stroke-width="1.5" stroke-linecap="round"/>
  <line x1="45.5" y1="38" x2="43" y2="36.5" stroke="#374151" stroke-width="1.5" stroke-linecap="round"/>
  <!-- Clock hands -->
  <line x1="28" y1="28" x2="28" y2="15" stroke="#374151" stroke-width="2.5" stroke-linecap="round"/>
  <line x1="28" y1="28" x2="20" y2="22" stroke="#374151" stroke-width="2.5" stroke-linecap="round"/>
  <circle cx="28" cy="28" r="2" fill="#374151"/>
  <!-- Briefcase -->
  <rect x="34" y="40" width="26" height="18" rx="3" fill="#D2956A" stroke="#374151" stroke-width="2"/>
  <rect x="34" y="40" width="26" height="8" rx="3" fill="#E8B88A" stroke="#374151" stroke-width="2"/>
  <rect x="42" y="35" width="10" height="7" rx="2" fill="none" stroke="#374151" stroke-width="2"/>
  <circle cx="47" cy="50" r="2.5" fill="#F59E0B" stroke="#374151" stroke-width="1.5"/>
  <line x1="47" y1="47" x2="47" y2="48" stroke="#374151" stroke-width="2" stroke-linecap="round"/>
</svg>
